<?xml version="1.0" encoding="UTF-8" standalone="no"?>
<svg
   xmlns:dc="http://purl.org/dc/elements/1.1/"
   xmlns:cc="http://creativecommons.org/ns#"
   xmlns:rdf="http://www.w3.org/1999/02/22-rdf-syntax-ns#"
   xmlns:svg="http://www.w3.org/2000/svg"
   xmlns="http://www.w3.org/2000/svg"
   viewBox="0 0 888.28003 406.34668"
   height="406.34668"
   width="888.28003"
   xml:space="preserve"
   id="svg2"
   version="1.1"><metadata
     id="metadata8"><rdf:RDF><cc:Work
         rdf:about=""><dc:format>image/svg+xml</dc:format><dc:type
           rdf:resource="http://purl.org/dc/dcmitype/StillImage" /></cc:Work></rdf:RDF></metadata><defs
     id="defs6" /><g
     transform="matrix(1.3333333,0,0,-1.3333333,0,406.34667)"
     id="g10"><g
       transform="scale(0.1)"
       id="g12"><path
         id="path14"
         style="fill:#293e95;fill-opacity:1;fill-rule:nonzero;stroke:none"
         d="m 5709.2,1766.08 h -77.29 l -1.05,4.11 c -5.83,22.52 -13.39,43.66 -20.7,64.06 -5.04,14.19 -10.33,28.87 -14.81,43.62 l -1.04,3.12 c -3.39,10.84 -0.5,22.53 7.43,30.63 52.04,50.59 93.94,113.74 121.19,182.8 13.52,34.33 23.35,70.21 29.16,106.55 5.96,38.1 7.86,73.46 5.83,111.32 -0.3,6.19 1.85,12.18 5.96,16.78 4.18,4.63 9.89,7.35 16.1,7.66 h 0.12 c 13.31,0 23.29,-9.1 24.33,-21.18 3.51,-40.26 2.62,-83.14 -2.48,-121.76 -5.17,-40.3 -14.66,-80.16 -28.3,-118.39 -13.58,-37.98 -31.34,-74.97 -52.9,-109.9 -15.54,-25.59 -34.59,-51.38 -59.72,-81 l 5.8,-12.75 c 11.4,-25.05 23.32,-50.94 32.17,-77.62 l 10.2,-28.05" /><path
         id="path16"
         style="fill:#293e95;fill-opacity:1;fill-rule:nonzero;stroke:none"
         d="m 2739.44,485 c -9.27,0 -17.88,4.551 -23.16,12.148 -0.92,1.442 -10.32,15.223 -25.16,41.84 -17.02,30.153 -36.96,67.051 -56.74,112.551 -24.33,54.051 -45.28,110.27 -62.24,167.02 -10.54,35.961 -18.65,67.019 -25.81,97.652 -6.45,30.609 -13.79,66.559 -19.2,101.779 -11.79,74.03 -18.77,142.43 -20.61,203.21 -1.84,59.48 -0.61,119.35 3.59,177.9 8.67,102.78 23.88,171.04 24,171.75 3.13,14.68 18.4,24.56 33.36,21.33 13.27,-2.94 22.67,-15.43 21.87,-29.1 l -2.89,-46.13 c -1.78,-26.08 -3.81,-68.2 -3.81,-120.87 -0.73,-55.35 1.42,-114.14 6.3,-170.18 5.99,-75.31 13.67,-136.7 24.24,-193.28 5.53,-31.78 12.1,-61.839 20.21,-97.241 7.29,-32.43 15.09,-63.578 23.26,-92.59 14.04,-51.969 30.75,-106.73 49.74,-162.949 15.48,-43.309 30.35,-83.602 42.02,-113.352 l 17.02,-43.179 c 5.62,-14.379 -1.41,-30.661 -15.73,-36.329 -3.32,-1.339 -6.76,-1.98 -10.26,-1.98" /><path
         id="path18"
         style="fill:#293e95;fill-opacity:1;fill-rule:nonzero;stroke:none"
         d="m 3105.2,260.969 v 0 c -6.48,0 -12.59,2.64 -17.02,7.301 -0.55,0.691 -23.93,25.878 -60.89,71.679 -51.11,63.699 -97.81,132.321 -138.55,203.922 -57.57,101.949 -104.08,209.899 -138.36,320.969 -18.49,58.988 -33.79,121.84 -46.76,192.13 -11.55,59.98 -19.57,126.45 -24.51,203.25 -2.15,62.53 -3.81,134.92 4.45,205.36 6.12,73.29 20.68,143.11 32.66,195.72 16.22,65.01 34.28,124.68 53.85,177.43 19.94,54.26 41.69,105.51 64.67,152.27 21.26,44.68 44.17,84.76 64.45,120.09 l 1.81,3.17 51.89,79.06 61.93,84.77 c 7.34,9.91 22.49,12.31 32.41,5.01 9.77,-7.12 12.38,-20.74 5.87,-31.04 l -66.85,-106.46 -36.74,-67.66 c -17.02,-33.58 -36.25,-71.63 -54.07,-114.56 -19.85,-45.93 -38.19,-95.9 -54.56,-148.64 -15.97,-50.64 -30.35,-108.17 -42.76,-170.94 -10.78,-65.26 -20.19,-124.41 -24.12,-186.22 -5.56,-72.35 -7.4,-135.74 -5.87,-193.83 2.07,-73.15 7.32,-136.43 16.1,-193.48 9.83,-67.08 22.61,-129.239 37.91,-184.75 28.33,-105.801 70.26,-213.711 121.01,-312.059 52.72,-100.43 100.67,-170.121 124.51,-202.699 33.49,-46 54.93,-71.532 55.18,-71.801 3.96,-4.723 5.83,-10.699 5.34,-16.84 -0.55,-6.16 -3.41,-11.769 -8.17,-15.769 -4.18,-3.461 -9.46,-5.383 -14.81,-5.383" /><path
         id="path20"
         style="fill:#293e95;fill-opacity:1;fill-rule:nonzero;stroke:none"
         d="m 3532.98,112.969 v 0 c -5.74,0 -11.27,1.679 -15.91,4.781 l -31.55,21.031 c -20.03,12.75 -49.83,34.418 -88.66,64.231 -69.92,55.867 -173.88,145.789 -270.98,281.816 -76.1,106.141 -177.66,279.543 -229.76,502.934 l -15.79,74.248 -8.79,50.19 c -9.71,74.84 -14.29,132.35 -14.99,186.74 -1.97,111.92 8.23,220.51 30.26,322.75 43.22,203.03 137.47,407.33 265.36,575.24 140.18,184.76 302.2,301.66 413.59,367.21 65.5,38.09 132.59,70.47 199.38,96.16 51.18,19.85 102.67,36.44 162.05,52.18 54.22,12.93 85.07,19.54 107.37,22.82 l 37.79,6.69 c 15.85,2.85 30.53,-7.89 33.18,-23.24 2.64,-15.2 -7.07,-29.67 -22.24,-32.95 l -37.76,-8.09 c -23.93,-4.41 -57.97,-13.39 -101.72,-25.47 -56.4,-17.06 -104.94,-34.65 -152.8,-55.25 -56.47,-23.87 -119.17,-56.49 -186.72,-96.98 -67.71,-41.38 -134.43,-91.52 -198.39,-149.05 -65.38,-58.7 -127.83,-127.45 -185.71,-204.41 -121.13,-161.33 -206.38,-349.2 -246.53,-543.28 -21.08,-103.23 -31.09,-205.13 -29.68,-302.96 0.4,-64.35 7.07,-127.58 12.84,-175.49 l 7.56,-45.68 14.75,-72.08 c 51.57,-221.001 141.92,-382.298 208.65,-478.689 36.49,-53.621 78.34,-105.75 131.54,-164.039 40.68,-44.762 80.31,-80.203 117.36,-112.621 38.03,-31.57 63.4,-51.551 82.27,-64.609 l 30.81,-22.321 c 6.23,-4.531 10.32,-11.179 11.52,-18.711 1.23,-7.601 -0.68,-15.14 -5.1,-21.351 -5.38,-7.34 -14.04,-11.75 -23.2,-11.75" /><path
         id="path22"
         style="fill:#5aac34;fill-opacity:1;fill-rule:nonzero;stroke:none"
         d="m 4978.05,374.078 c -404.43,-280.6874 -966.62,-288.3671 -1389,46.344 -404.4,320.566 -549.19,886.218 -345.21,1360.278 217.97,506.55 727.13,763.71 1219.76,700.51 l -0.67,1.06 c 4.67,56.09 3.38,114.37 22.18,167.99 45.74,130.29 162.6,206.95 298.91,208.38 142.24,1.46 284.38,-60.66 402.16,-135.94 119.29,-72.87 237.53,-173.39 298.51,-301.93 58.37,-123.01 40.74,-261.73 -56.34,-359.91 -39.94,-40.42 -92.77,-64.84 -141.25,-93.58 l -1.14,-0.11 c 40.83,-62.13 75.3,-127.82 103.25,-195.93 h 110.97 c -20.09,54.1 -43.81,107.2 -71.58,158.7 25.07,16.07 50.32,34.79 73.42,58.15 126.08,127.63 155.26,310.45 76.19,477.09 -61.84,130.25 -175.66,246.59 -336.33,344.77 -158.21,101.02 -310.59,152.21 -452.88,152.21 l -6.12,-0.01 c -184.47,-1.96 -335.99,-108.32 -395.4,-277.58 -10.88,-31.09 -16.71,-61.89 -20.09,-91.51 -17.14,0.71 -34.29,1.06 -51.49,1.06 -551.68,0 -1043.12,-349.92 -1216.99,-907.09 -32.79,-105.18 -49.93,-215.29 -51.12,-325.45 -5.14,-464.65 221.15,-872.01 596.5,-1106.541 201.46,-125.879 433.03,-192.4296 669.55,-192.4296 312.58,0 605.47,112.8206 832.59,311.4686 h -168.38" /><path
         id="path24"
         style="fill:#171513;fill-opacity:1;fill-rule:nonzero;stroke:none"
         d="m 4279.86,1597.65 c 84.02,0 172.47,-24.27 238.43,-82.36 l -72.87,-113.62 c -35.48,32.1 -97.94,57.26 -150.9,57.26 -130.01,0 -182.85,-83.23 -182.85,-175.15 0,-117.94 81.44,-188.15 177.69,-188.15 45.09,0 90.19,17.34 125.7,45.09 v 47.69 h -87.61 v 129.18 h 221.99 V 967.301 h -126.51 v 17.347 c 0,13.012 0.8,26.022 0.8,26.022 h -1.66 c -37.36,-32.971 -102.36,-53.76 -163.06,-53.76 -158.65,0 -304.26,118.8 -304.26,321.66 0,180.36 136.09,319.08 325.11,319.08" /><path
         id="path26"
         style="fill:#171513;fill-opacity:1;fill-rule:nonzero;stroke:none"
         d="m 4848.65,1306.34 c 48.48,0 78.84,26.84 78.84,76.28 0,31.21 -7.75,54.61 -36.38,65.9 -13.86,6.08 -32.07,8.68 -57.23,8.68 h -51.18 v -150.86 z m -217.68,280.9 h 215.9 c 63.29,0 93.64,-4.34 120.55,-14.73 70.17,-26.88 114.5,-90.18 114.5,-180.38 0,-65.88 -31.28,-137.83 -92.87,-169.06 v -1.75 c 0,0 8.72,-11.24 23.47,-37.24 L 5133,967.301 H 4963.95 L 4853.82,1176.26 H 4782.7 V 967.301 h -151.73 v 619.939" /><path
         id="path28"
         style="fill:#171513;fill-opacity:1;fill-rule:nonzero;stroke:none"
         d="m 5191.03,1587.25 h 388.44 V 1457.2 h -236.7 v -112.7 h 189.05 V 1214.4 H 5342.77 V 1097.37 H 5591.6 V 967.301 h -400.57 v 619.949" /><path
         id="path30"
         style="fill:#171513;fill-opacity:1;fill-rule:nonzero;stroke:none"
         d="m 5645.43,1587.25 h 388.36 V 1457.2 h -236.64 v -112.7 h 188.96 v -130.1 h -188.96 v -117.03 h 248.87 V 967.301 h -400.59 v 619.949" /><path
         id="path32"
         style="fill:#171513;fill-opacity:1;fill-rule:nonzero;stroke:none"
         d="m 6132.65,1587.25 h 153.42 l 171.67,-289.65 c 24.3,-40.69 52.04,-105.75 52.04,-105.75 h 1.66 c 0,0 -6.88,66.78 -6.88,105.75 v 289.65 h 151.78 V 967.301 H 6503.7 l -172.56,288.739 c -24.24,40.73 -51.95,105.77 -51.95,105.77 h -1.78 c 0,0 6.94,-66.74 6.94,-105.77 V 967.301 h -151.7 v 619.949" /><path
         id="path34"
         style="fill:#171513;fill-opacity:1;fill-rule:nonzero;stroke:none"
         d="m 5280.28,793.359 c 30.17,0 62.91,-9.3 85.4,-30.769 l -16.53,-24.5 c -17.2,15.242 -43.37,25.5 -67.55,25.5 -54.22,0 -86.36,-40.059 -86.36,-89.34 0,-49.66 32.75,-92.379 87,-92.379 26.18,0 53.03,11.641 71.83,30.5 l 17.54,-23.519 c -19.81,-19.864 -48.94,-37.082 -90.38,-37.082 -72.35,0 -119.72,53.621 -119.72,122.14 0,67.809 49.28,119.449 118.77,119.449" /><path
         id="path36"
         style="fill:#171513;fill-opacity:1;fill-rule:nonzero;stroke:none"
         d="m 5502.39,581.871 c 49.64,0 86.05,40.09 86.05,92.379 0,50.59 -36.41,89.34 -86.05,89.34 -49.95,0 -86.42,-38.75 -86.42,-89.34 0,-52.289 36.47,-92.379 86.42,-92.379 z m 0,211.488 c 69.52,0 119.69,-51.98 119.69,-119.109 0,-68.859 -50.17,-122.48 -119.69,-122.48 -69.52,0 -120.12,53.621 -120.12,122.48 0,67.129 50.6,119.109 120.12,119.109" /><path
         id="path38"
         style="fill:#171513;fill-opacity:1;fill-rule:nonzero;stroke:none"
         d="m 5658.6,789.359 h 32.41 l 104.27,-151.558 c 8.29,-12.871 19.2,-34.082 19.2,-34.082 h 0.68 c 0,0 -2,20.871 -2,34.082 v 151.558 h 32.38 V 555.77 h -32.01 l -104.27,151.57 c -8.32,12.898 -19.23,34.039 -19.23,34.039 h -0.61 c 0,0 1.96,-20.848 1.96,-34.039 V 555.77 h -32.78 v 233.589" /><path
         id="path40"
         style="fill:#171513;fill-opacity:1;fill-rule:nonzero;stroke:none"
         d="m 6001.47,793.359 c 30.08,0 62.92,-9.3 85.35,-30.769 l -16.5,-24.5 c -17.17,15.242 -43.34,25.5 -67.56,25.5 -54.22,0 -86.32,-40.059 -86.32,-89.34 0,-49.66 32.75,-92.379 87,-92.379 26.18,0 53.03,11.641 71.86,30.5 l 17.51,-23.519 c -19.88,-19.864 -48.94,-37.082 -90.35,-37.082 -72.5,0 -119.75,53.621 -119.75,122.14 0,67.809 49.34,119.449 118.76,119.449" /><path
         id="path42"
         style="fill:#171513;fill-opacity:1;fill-rule:nonzero;stroke:none"
         d="m 6123.62,789.359 h 136.03 V 760.93 h -103.28 v -73.16 h 83.74 v -28.43 h -83.74 v -75.11 h 108.87 v -28.46 h -141.62 v 233.589" /><path
         id="path44"
         style="fill:#171513;fill-opacity:1;fill-rule:nonzero;stroke:none"
         d="m 6379.46,677.199 c 25.47,0 41.69,17.223 41.69,43.039 0,16.821 -7.31,30.461 -21.84,36.711 -5.96,2.66 -13.27,3.981 -28.14,3.981 h -38.71 v -83.731 z m -79.78,112.16 h 74.13 c 22.61,0 33.79,-1.961 43.38,-6.25 22.51,-9.937 37.05,-31.461 37.05,-61.238 0,-29.781 -16.17,-55.609 -41.75,-64.141 v -0.742 c 0,0 2.61,-3.238 6.66,-10.539 l 49.65,-90.679 h -37.11 l -49.22,92.992 h -50.01 V 555.77 h -32.78 v 233.589" /><path
         id="path46"
         style="fill:#171513;fill-opacity:1;fill-rule:nonzero;stroke:none"
         d="m 6549.29,760.93 h -80.44 v 28.429 h 193.24 V 760.93 h -80.43 V 555.77 h -32.37 v 205.16" /><path
         id="path48"
         style="fill:#293e95;fill-opacity:1;fill-rule:nonzero;stroke:none"
         d="m 5304.76,374.078 c -3.81,-3.797 -7.63,-7.726 -11.42,-11.488 l -14.9,-14.942 c -20.83,-20.609 -43.5,-40.269 -65.44,-59.289 l -17.39,-15.148 c -116,-94.992 -245.39,-171.832 -384.62,-228.2422 -11.15,-4.5782 -17.08,-17.0782 -13.52,-28.5704 2.19,-6.96871 7.65,-12.55856 14.57,-15.04684 4.7,-1.722654 9.86,-1.781248 14.65,-0.24218 C 4974.86,47.3086 5114.21,119.441 5240.9,215.609 l 17.57,13.93 c 24.39,19.422 49.61,39.481 73.17,60.93 27.59,24.883 56.9,52.16 83.96,82.429 0.37,0.383 0.71,0.801 1.09,1.18 h -111.93" /><path
         id="path50"
         style="fill:#100f0d;fill-opacity:1;fill-rule:nonzero;stroke:none"
         d="M 950.477,62.2813 H 1900.45 L 1827.4,330.121 h -545.72 l 318.64,437.77 c 52.88,70.578 80.82,154.57 80.82,242.959 0,223.61 -181.92,405.53 -405.53,405.53 H 649.258 l 301.219,1081.41 h 6.558 l 260.705,-945.81 c 18.72,1.95 37.71,2.98 56.94,2.98 83.14,0 161.89,-18.72 232.36,-52.07 l -420.79,1542.9 0.01,1.84 H 814.695 v 0 L 0,60.4219 H 271.566 L 574.652,1148.54 h 700.958 c 75.92,0 137.69,-61.77 137.69,-137.69 0,-30.178 -9.56,-58.819 -27.65,-82.799 l -435.181,-597.84 0.125,-0.09 h -0.117 V 62.2813" /></g></g></svg>