<svg xmlns="http://www.w3.org/2000/svg" xmlns:xlink="http://www.w3.org/1999/xlink" viewBox="0 0 279.08 127.76"><defs><linearGradient id="b" x1="-6.72" x2="263.95" y1="89.8" y2="42.07" gradientTransform="matrix(1 0 0 -1 0 127.89)" gradientUnits="userSpaceOnUse"><stop offset="0" stop-color="#fdfdfe" stop-opacity="0"/><stop offset=".23" stop-color="#f0f0f1" stop-opacity=".07"/><stop offset=".49" stop-color="#c9c8ca" stop-opacity=".28"/><stop offset=".77" stop-color="#888889" stop-opacity=".62"/><stop offset="1" stop-color="#414042"/></linearGradient><linearGradient id="a" x1="22.22" x2="235.55" y1="66.45" y2="66.45" gradientTransform="matrix(1 0 0 -1 0 127.89)" gradientUnits="userSpaceOnUse"><stop offset="0" stop-color="#828181"/><stop offset=".53" stop-color="#fffafb"/><stop offset=".6" stop-color="#f6f1f2"/><stop offset=".71" stop-color="#dedada"/><stop offset=".85" stop-color="#b6b3b4"/><stop offset="1" stop-color="#828181"/></linearGradient><linearGradient id="c" x1="27.65" x2="228.21" y1="67.94" y2="67.94" xlink:href="#a"/></defs><path fill="url(#b)" d="M0 0h279.08l-24.33 127.76H0V0z"/><path fill="url(#a)" stroke="#231f20" stroke-miterlimit="10" stroke-width=".76" d="M132 100.93c-4.6 0-7.06-1.59-8.79-5.66l-6.94-17.09c-.54-1.34-1.19-1.56-2.53-1.56h-67a5.13 5.13 0 0 1-4.17-1.7 5.22 5.22 0 0 1-.92-4.45l.9-4.47h-2.23a43.82 43.82 0 0 0 .4 11.86 40.6 40.6 0 0 0 4.93 14.33 4.51 4.51 0 0 1-.33 5.56 4.78 4.78 0 0 1-3.51 1.47 5.45 5.45 0 0 1-2.36-.55 15.17 15.17 0 0 1-3.21-2.08C30.6 91.78 26 84 23.79 75.85a48.15 48.15 0 0 1-1.06-19.14v-.25c4-20.65 18.63-34.51 36.4-34.51h.28c2.89 0 7.74.5 8.28.56l2 .2-2.84 15.12a22.43 22.43 0 0 1 4.76-1.18l2-10.94h18.62l-2 10.7H163l2-10.73h28.51l-2 10.7h39.15a4.89 4.89 0 0 1 4.81 5.78l-9.6 51.54a8.75 8.75 0 0 1-8.64 7.23z"/><path fill="#231f20" d="M230.64 38.24h-41.35l2-10.7h-24.8l-2 10.73H88l2-10.7H75.15l-.89 4.78-1.12 6s-5.48.26-8.8 2.94l3.22-17s-5.16-.52-8.11-.55c-17-.14-31 13.26-34.87 33V57a46.21 46.21 0 0 0 1 18.39c2 7.73 6.36 15.12 11.86 19.78a13.34 13.34 0 0 0 2.8 1.83c2.59 1.25 5.63-.87 3.84-3.93a42.14 42.14 0 0 1-5.15-14.95 46.43 46.43 0 0 1-.23-14h6l-1.25 6.63c-.39 2.07.37 4 3.31 4h67a4 4 0 0 1 4.22 2.7l6.93 17.07c1.51 3.55 3.34 4.55 7.11 4.55h85.23a7 7 0 0 0 6.85-5.74l9.57-51.49a3.07 3.07 0 0 0-3-3.6zM47.33 50.69H41.7c1.66-3.93 4.51-8.67 7.74-11.29z"/><path fill="#ed1e24" d="M140.89 82.15c-.15-.29-.67-1.32-2.67-1.32-1.63 0-2.61.62-2.61 1.53 0 1.07 1.42 1.37 2.82 1.54 2.42.32 4.84 1 4.84 3.91 0 2.74-2.45 3.91-5 3.91-2.37 0-4.2-.77-5.06-3l1.87-1a3.09 3.09 0 0 0 3.22 1.89c1.38 0 2.89-.48 2.89-1.82 0-1.16-1.36-1.62-2.9-1.8-2.37-.3-4.74-1-4.74-3.73 0-2.53 2.54-3.55 4.68-3.57 1.81 0 3.68.54 4.56 2.44zm6.73 9.29h2.11V81.25h3.73v-2.11h-9.56v2.11h3.72zm17.78 0H163l-1-2.32h-6l-1 2.32h-2.4l5.21-12.31h2.39zM161.16 87L159 81.72 156.85 87zm26 4.48V79.14H185v12.3zm10.25-12.29v7c0 2.11-1 3.39-2.84 3.39s-3-1.18-3-3.39v-7h-2.17v7c0 3.7 2.37 5.49 5.16 5.49s5-1.86 5-5.49v-7zm14.52 12.29h2.19V79.15h-2.51L208 84.44l-3.63-5.28h-2.52v12.28H204v-8.93l3.7 5.35h.43l3.78-5.34zm-35-12.28h-13.65l.93 2.19h12.72c2.52 0 3.58 1.91 3.63 3.83s-1 4-3.63 4h-9.39l.95 2.23h8.44c4.07 0 5.86-3.14 5.81-6.25s-1.82-6-5.8-6z"/><path fill="url(#c)" d="M100.59 49.34l1.41-7.49H86l-5.56 29.34h7.28l5-26.4h3.38l-.82 4.56zm-22.44-18.2l-2 10.71c-6.06 0-12 .8-13.56 9.58l-3.75 19.76H78l7.63-40zm-7.07 37.12h-4.42L70 51.18c.68-3.74 2.1-6.38 5.57-6.38zM187 31h-7.22l-1.11 6h7.19zm14.8 10.82h-14.08l-5.59 29.33h7.47l5-26.4h4.67l-5 26.4h7.39l4.54-23.75c.49-3.3-1.09-5.55-4.42-5.55zm-32.3-10.7l-7.59 40.07h7.28l7.61-40.07zm-65.61 10.73l-5.6 29.33h17.9l.68-2.93h-11l.8-4.08c3.61 0 11-1 12.31-7.58l2.88-14.75zm8.44 14.36c-.68 3.4-1.5 4.42-5 4.42l3-15.85h4.15zm97.77-14.36l-5.58 29.33h18.14l.55-2.93h-11.09l.76-4.09c3.61 0 10.9-1.08 12.4-7.68l2.93-14.63zm8.53 14.36c-.75 3.4-1.47 4.51-5.07 4.51l3-15.94h4.26zm-40.89-14.36l-5.6 29.33h7.21l5.59-29.33zm-31.7 0l-.54 2.93h10.9l-1 5.24c-6 0-11.16 1-12.86 9.73l-2.11 11.36-.14.07h18.61l5.72-29.33zm5.89 26.4h-4.39l1.68-8.74c.68-3.68 2.09-6.1 5.56-6.1zm-14.14-26.4H124l-5.52 29.33h7.22l5.07-26.4h5l-5.07 26.4h7.14l4.56-23.82c.69-3.87-.6-5.51-4.61-5.51zM59.45 27.38c-14.24 0-27.64 11-31.33 30.07a42.18 42.18 0 0 0 .92 17 37.18 37.18 0 0 0 10.83 18.07c-3.17-5.66-4.52-12.26-5-18a57 57 0 0 1 .51-13.93H49.1l-2 10.62H55l8.26-43.52c-.97-.13-2.85-.31-3.81-.31zm-9.11 26.93H36.76c1.16-6 8.4-20.51 17.4-20.51z"/></svg>